<?xml version="1.0" encoding="utf-8"?>
<!-- Generator: Adobe Illustrator 24.0.1, SVG Export Plug-In . SVG Version: 6.00 Build 0)  -->
<svg version="1.1" id="Layer_1" xmlns="http://www.w3.org/2000/svg" xmlns:xlink="http://www.w3.org/1999/xlink" x="0px" y="0px"
	 viewBox="0 0 340.56 508.8" style="enable-background:new 0 0 340.56 508.8;" xml:space="preserve">
<style type="text/css">
	.st0{fill:#FFFFFF;}
</style>
<g id="NKpQJX.tif">
	<g>
		<path class="st0" d="M0,505.2C0,336.81,0,168.41,0,0c113.51,0,227.02,0,340.56,0c0,169.59,0,339.19,0,508.8
			c-112.8,0-225.6,0-338.4,0c0.34-0.08,0.68-0.2,1.02-0.23c4.53-0.43,9.07-0.74,13.59-1.29c8.32-1.01,16.63-2.08,24.92-3.29
			c11.01-1.61,22.01-3.29,32.98-5.12c11.6-1.94,23.18-4.01,34.74-6.16c12.23-2.27,24.37-4.96,36.32-8.43
			c6.74-1.95,13.42-4.1,19.63-7.45c2.54-1.37,4.95-2.95,6.65-5.38c1.83-2.62,1.83-5.39,0.11-8.06c-2.23-3.45-5.25-5.98-8.86-7.86
			c-6.19-3.22-12.9-4.67-19.73-5.42c-9.28-1.01-18.62-1.55-27.9-2.51c-5.5-0.57-10.99-1.42-16.43-2.47
			c-3.88-0.75-7.58-2.22-10.71-4.8c-1.51-1.24-1.58-1.61,0.05-2.77c1.85-1.31,3.76-2.58,5.79-3.57c6.87-3.33,14.14-5.62,21.46-7.73
			c22.42-6.47,45.25-11.21,68.1-15.81c11.88-2.4,23.79-4.64,35.69-6.88c11.09-2.08,22.19-4.08,33.29-6.07
			c9.34-1.68,18.69-3.31,28.03-4.95c8.99-1.57,17.98-3.14,26.98-4.68c5.35-0.91,10.68-1.87,15.76-3.85
			c3.93-1.53,7.67-3.36,10.66-6.46c3.66-3.79,4.33-8.68,1.75-13.3c-1.7-3.04-4.24-5.28-6.98-7.31c-6.36-4.7-13.47-8.06-20.66-11.26
			c-0.53-0.24-1.05-0.48-1.52-0.69c4.08-1.8,8.13-3.46,12.07-5.36c3.94-1.91,7.59-4.27,10.13-8.01c3.4-5.02,2.43-11.38-2.34-15.09
			c-3.24-2.52-7.1-3.57-11-4.43c-8.52-1.89-17.11-3.47-25.57-5.58c-18.23-4.56-34.79-12.46-48.79-25.27
			c-6.92-6.33-13.46-12.98-18.6-20.88c-3.6-5.54-6.45-11.39-7.04-18.1c-0.2-2.26-0.44-4.59,0.79-6.66c1.05-1.78,2.16-3.55,3.41-5.2
			c4.4-5.82,9.87-10.56,15.61-14.97c11.32-8.7,23.75-15.56,36.6-21.69c15.53-7.41,31.62-13.42,47.9-18.94
			c7.63-2.59,13.53-7.27,17.05-14.64c2.84-5.93,3.44-12.23,2.88-18.7c-0.3-3.44-0.96-6.79-2.59-9.89c-3.1-5.85-8.1-9.6-13.93-12.31
			c-3.27-1.52-6.71-2.66-10.2-4.02c0.05-0.62,0.13-1.41,0.16-2.2c0.44-11.76-0.01-23.49-1.68-35.14c-1.85-12.9-5-25.48-9.43-37.75
			c-3.69-10.23-8.45-19.97-13.53-29.56c-1.81-3.41-3.57-6.84-5.52-10.59c-4.21,15.26-8.72,30.06-15.7,44.01
			c-6.96,13.93-15.07,27.12-24.38,39.63c-0.28-0.21-0.47-0.34-0.66-0.49c-10.03-7.96-19.47-16.58-28.19-25.97
			c-10.87-11.7-20.38-24.37-27.49-38.76c-1-2.02-2.27-3.95-3.64-5.75c-1.38-1.81-3.39-2.55-5.65-2.05
			c-2.19,0.49-3.55,1.99-4.01,4.15c-0.24,1.15-0.35,2.41-0.14,3.56c1.02,5.6,1.95,11.24,3.31,16.76
			c5.85,23.68,12.85,47.05,19.91,70.39c0.9,2.96,1.79,5.92,2.7,8.91c-0.3,0.1-0.48,0.18-0.67,0.22c-5.26,1.08-10.26,2.92-15.13,5.16
			c-12.99,5.97-23.92,14.77-34.1,24.65c-8.31,8.07-14.63,17.81-22.37,26.36c-0.61,0.68-0.85,1.53-0.42,2.45
			c0.45,0.94,1.24,1.4,2.22,1.32c1.1-0.1,2.21-0.3,3.28-0.6c7.36-2.09,14.72-4.18,22.38-4.97c7.7-0.8,15.31-0.46,22.77,1.68
			c2.59,0.74,5.11,1.7,7.69,2.56c0.11-0.2,0.24-0.4,0.34-0.62c0.09-0.21,0.16-0.43,0.35-0.94c-3.37-1.19-6.61-2.54-9.97-3.49
			c-11.01-3.13-22.1-2.6-33.19-0.39c-2.96,0.59-5.89,1.33-8.99,2.03c0.22-0.34,0.34-0.58,0.5-0.78c2.32-2.85,4.57-5.76,6.97-8.54
			c6.69-7.77,13.95-14.96,22.08-21.24c9.39-7.25,19.45-13.25,30.91-16.63c4.1-1.21,8.25-2.21,12.59-1.84
			c0.53,0.05,1.07,0.01,1.74,0.01c-3.59-13.38-7.19-26.51-10.63-39.69c-3.45-13.21-6.75-26.46-10.11-39.7
			c0.13-0.06,0.26-0.11,0.39-0.17c7.66,11.6,16.44,22.28,26.17,32.18c9.73,9.9,20.06,19.11,31.24,27.35
			c15.87-18.76,29.52-38.87,40.1-61.34c8.75,23.12,13.13,46.67,13.17,71.06c-1.07-0.08-1.99-0.14-2.9-0.23
			c-9.04-0.82-18.03-0.37-26.94,1.34c-17.01,3.26-32.36,10.21-45.81,21.14c-9.97,8.1-18.57,17.41-24.65,28.88
			c-5.98,11.26-9.13,23.27-9.77,35.95c-0.35,6.96,0.02,13.89,1.13,20.78c1.56,9.61,4.02,18.96,8.13,27.79
			c2.45,5.27,5.23,10.4,7.87,15.58c0.78,1.53,1.57,3.05,2.43,4.53c4.88,8.34,11.17,15.54,18.06,22.27
			c9.76,9.53,20.58,17.55,32.9,23.49c12.59,6.07,25.9,9.85,39.56,12.52c3.73,0.73,7.46,1.47,11.46,2.26
			c-0.63,0.31-1.01,0.5-1.4,0.68c-7.99,3.58-16.34,6.08-24.74,8.47c-0.45,0.13-1.02-0.01-1.49-0.15
			c-5.22-1.57-10.39-3.38-15.67-4.73c-16.2-4.14-32.76-6.1-49.37-7.66c-6.91-0.65-13.85-1.16-20.78-1.49
			c-10.33-0.49-20.66-0.85-31-1.1c-5.75-0.14-11.51-0.04-17.26,0.1c-7.11,0.16-14.22,0.25-21.31,0.76
			c-10.9,0.78-21.8,1.76-32.67,2.91c-9.88,1.05-19.65,2.87-29.29,5.28c-9.34,2.34-18.49,5.25-27,9.85
			c-5.89,3.18-11.24,7.05-15.18,12.58c-3.21,4.51-2.56,9.55,1.65,13.14c2.64,2.25,5.8,3.47,9.06,4.45
			c7.8,2.35,15.84,3.43,23.91,3.98c9.87,0.68,19.77,1.1,29.67,1.32c7.98,0.18,15.98-0.02,23.97-0.21
			c7.02-0.17,14.05-0.42,21.06-0.86c9.32-0.58,18.64-1.29,27.95-2.08c7.52-0.64,15.03-1.36,22.52-2.23
			c8.36-0.97,16.71-2.04,25.04-3.28c10.06-1.5,20.11-3.06,30.11-4.88c17.89-3.25,35.67-7.01,53.19-11.88
			c0.49-0.14,1.13-0.14,1.59,0.05c7.26,3.07,14.57,6.05,21.74,9.33c4.39,2.01,8.6,4.45,12.04,7.94c2.5,2.53,2.72,3.35-0.51,5.43
			c-2.51,1.62-5.32,3.03-8.2,3.79c-5.73,1.51-11.58,2.61-17.4,3.72c-16.21,3.07-32.45,6.02-48.67,9.07
			c-13.16,2.47-26.33,4.93-39.47,7.55c-13.83,2.75-27.64,5.63-41.44,8.55c-16.96,3.59-33.84,7.54-50.52,12.27
			c-9.17,2.6-18.28,5.39-26.97,9.35c-3.75,1.71-7.42,3.58-10.32,6.62c-3.18,3.33-3.38,7.59-0.22,10.68c1.6,1.57,3.52,2.9,5.49,3.99
			c5.58,3.07,11.75,4.34,17.99,4.96c9.41,0.93,18.86,1.51,28.29,2.23c6.21,0.47,12.41,1.08,18.45,2.65
			c4.67,1.22,9.2,2.79,12.62,6.43c2.76,2.94,3.12,3.47-0.59,6.05c-2.5,1.74-5.3,3.12-8.12,4.29c-11.01,4.57-22.54,7.4-34.11,10.1
			c-16.23,3.79-32.6,6.87-49.03,9.63c-15.92,2.67-31.86,5.26-47.83,7.66C17.31,503.39,8.64,504.18,0,505.2z"/>
		<path d="M0,505.2c8.64-1.02,17.31-1.81,25.9-3.1c15.97-2.39,31.9-4.99,47.83-7.66c16.43-2.76,32.8-5.84,49.03-9.63
			c11.57-2.7,23.1-5.54,34.11-10.1c2.82-1.17,5.62-2.55,8.12-4.29c3.71-2.59,3.35-3.11,0.59-6.05c-3.41-3.64-7.95-5.22-12.62-6.43
			c-6.05-1.58-12.24-2.18-18.45-2.65c-9.43-0.72-18.88-1.29-28.29-2.23c-6.24-0.62-12.41-1.89-17.99-4.96
			c-1.97-1.08-3.89-2.42-5.49-3.99c-3.15-3.09-2.96-7.35,0.22-10.68c2.9-3.04,6.57-4.91,10.32-6.62c8.69-3.96,17.8-6.75,26.97-9.35
			c16.68-4.73,33.56-8.68,50.52-12.27c13.8-2.92,27.61-5.8,41.44-8.55c13.14-2.61,26.3-5.07,39.47-7.55
			c16.22-3.05,32.45-6,48.67-9.07c5.83-1.1,11.68-2.2,17.4-3.72c2.88-0.76,5.68-2.17,8.2-3.79c3.23-2.08,3.01-2.9,0.51-5.43
			c-3.44-3.49-7.66-5.93-12.04-7.94c-7.17-3.28-14.47-6.26-21.74-9.33c-0.46-0.19-1.1-0.19-1.59-0.05
			c-17.53,4.87-35.31,8.63-53.19,11.88c-10,1.82-20.05,3.38-30.11,4.88c-8.32,1.24-16.68,2.31-25.04,3.28
			c-7.49,0.87-15,1.6-22.52,2.23c-9.31,0.79-18.62,1.5-27.95,2.08c-7.01,0.43-14.04,0.69-21.06,0.86
			c-7.99,0.19-15.99,0.39-23.97,0.21c-9.9-0.22-19.79-0.64-29.67-1.32c-8.08-0.55-16.11-1.63-23.91-3.98
			c-3.26-0.98-6.42-2.2-9.06-4.45c-4.21-3.59-4.86-8.63-1.65-13.14c3.94-5.54,9.29-9.41,15.18-12.58c8.52-4.59,17.66-7.51,27-9.85
			c9.64-2.41,19.41-4.23,29.29-5.28c10.87-1.16,21.77-2.13,32.67-2.91c7.08-0.51,14.2-0.6,21.31-0.76
			c5.75-0.13,11.51-0.24,17.26-0.1c10.34,0.26,20.67,0.61,31,1.1c6.94,0.33,13.87,0.84,20.78,1.49c16.61,1.56,33.16,3.52,49.37,7.66
			c5.28,1.35,10.45,3.16,15.67,4.73c0.47,0.14,1.04,0.28,1.49,0.15c8.39-2.39,16.75-4.89,24.74-8.47c0.39-0.17,0.77-0.37,1.4-0.68
			c-4-0.79-7.73-1.53-11.46-2.26c-13.66-2.67-26.97-6.45-39.56-12.52c-12.32-5.94-23.14-13.97-32.9-23.49
			c-6.89-6.72-13.18-13.92-18.06-22.27c-0.87-1.48-1.65-3-2.43-4.53c-2.65-5.18-5.42-10.31-7.87-15.58
			c-4.11-8.84-6.58-18.19-8.13-27.79c-1.12-6.89-1.48-13.82-1.13-20.78c0.64-12.68,3.79-24.69,9.77-35.95
			c6.09-11.47,14.69-20.78,24.65-28.88c13.45-10.93,28.8-17.88,45.81-21.14c8.91-1.71,17.9-2.16,26.94-1.34
			c0.91,0.08,1.83,0.14,2.9,0.23c-0.05-24.39-4.42-47.94-13.17-71.06c-10.59,22.47-24.23,42.58-40.1,61.34
			c-11.18-8.24-21.51-17.45-31.24-27.35c-9.73-9.9-18.52-20.58-26.17-32.18c-0.13,0.06-0.26,0.11-0.39,0.17
			c3.37,13.23,6.66,26.49,10.11,39.7c3.44,13.18,7.04,26.31,10.63,39.69c-0.67,0-1.21,0.04-1.74-0.01
			c-4.34-0.37-8.49,0.63-12.59,1.84c-11.46,3.38-21.52,9.38-30.91,16.63c-8.13,6.28-15.39,13.47-22.08,21.24
			c-2.4,2.78-4.65,5.69-6.97,8.54c-0.16,0.2-0.28,0.44-0.5,0.78c3.1-0.7,6.03-1.44,8.99-2.03c11.09-2.21,22.18-2.74,33.19,0.39
			c3.35,0.95,6.6,2.3,9.97,3.49c-0.19,0.51-0.25,0.73-0.35,0.94c-0.1,0.21-0.23,0.41-0.34,0.62c-2.58-0.87-5.1-1.82-7.69-2.56
			c-7.47-2.14-15.07-2.48-22.77-1.68c-7.66,0.8-15.01,2.88-22.38,4.97c-1.07,0.3-2.18,0.5-3.28,0.6c-0.98,0.09-1.77-0.38-2.22-1.32
			c-0.44-0.92-0.19-1.77,0.42-2.45c7.74-8.55,14.05-18.29,22.37-26.36c10.18-9.88,21.11-18.68,34.1-24.65
			c4.87-2.24,9.87-4.07,15.13-5.16c0.19-0.04,0.37-0.12,0.67-0.22c-0.9-2.99-1.8-5.95-2.7-8.91c-7.06-23.34-14.06-46.71-19.91-70.39
			c-1.36-5.52-2.29-11.16-3.31-16.76c-0.21-1.14-0.1-2.41,0.14-3.56c0.46-2.16,1.82-3.66,4.01-4.15c2.27-0.51,4.28,0.23,5.65,2.05
			c1.37,1.8,2.63,3.73,3.64,5.75c7.11,14.38,16.62,27.05,27.49,38.76c8.72,9.39,18.15,18.01,28.19,25.97
			c0.18,0.15,0.38,0.28,0.66,0.49c9.3-12.51,17.41-25.7,24.38-39.63c6.98-13.95,11.49-28.75,15.7-44.01
			c1.95,3.75,3.71,7.18,5.52,10.59c5.08,9.59,9.84,19.33,13.53,29.56c4.43,12.27,7.58,24.85,9.43,37.75
			c1.67,11.66,2.11,23.38,1.68,35.14c-0.03,0.79-0.11,1.58-0.16,2.2c3.48,1.36,6.93,2.5,10.2,4.02c5.83,2.71,10.83,6.46,13.93,12.31
			c1.64,3.09,2.29,6.45,2.59,9.89c0.57,6.46-0.04,12.77-2.88,18.7c-3.53,7.38-9.43,12.05-17.05,14.64
			c-16.28,5.53-32.37,11.53-47.9,18.94c-12.84,6.13-25.27,12.99-36.6,21.69c-5.75,4.41-11.21,9.16-15.61,14.97
			c-1.25,1.65-2.36,3.41-3.41,5.2c-1.23,2.08-0.99,4.4-0.79,6.66c0.6,6.71,3.44,12.56,7.04,18.1c5.14,7.9,11.68,14.55,18.6,20.88
			c14.01,12.81,30.56,20.71,48.79,25.27c8.46,2.11,17.05,3.69,25.57,5.58c3.9,0.87,7.76,1.91,11,4.43
			c4.77,3.71,5.74,10.07,2.34,15.09c-2.53,3.74-6.19,6.1-10.13,8.01c-3.94,1.9-7.99,3.56-12.07,5.36c0.47,0.21,0.99,0.46,1.52,0.69
			c7.19,3.2,14.29,6.55,20.66,11.26c2.74,2.03,5.28,4.28,6.98,7.31c2.58,4.61,1.91,9.51-1.75,13.3c-2.99,3.1-6.73,4.92-10.66,6.46
			c-5.08,1.98-10.42,2.94-15.76,3.85c-9,1.54-17.99,3.1-26.98,4.68c-9.35,1.64-18.69,3.27-28.03,4.95c-11.1,2-22.21,3.99-33.29,6.07
			c-11.91,2.24-23.82,4.48-35.69,6.88c-22.85,4.61-45.68,9.35-68.1,15.81c-7.32,2.11-14.59,4.39-21.46,7.73
			c-2.03,0.99-3.95,2.25-5.79,3.57c-1.63,1.16-1.56,1.53-0.05,2.77c3.13,2.58,6.83,4.05,10.71,4.8c5.43,1.05,10.92,1.9,16.43,2.47
			c9.29,0.97,18.62,1.5,27.9,2.51c6.83,0.75,13.54,2.19,19.73,5.42c3.61,1.88,6.63,4.41,8.86,7.86c1.72,2.67,1.72,5.44-0.11,8.06
			c-1.7,2.43-4.11,4.01-6.65,5.38c-6.21,3.36-12.89,5.5-19.63,7.45c-11.95,3.46-24.09,6.15-36.32,8.43
			c-11.56,2.15-23.14,4.22-34.74,6.16c-10.97,1.83-21.97,3.51-32.98,5.12c-8.29,1.21-16.6,2.27-24.92,3.29
			c-4.51,0.55-9.06,0.86-13.59,1.29c-0.34,0.03-0.68,0.15-1.02,0.23c-0.72,0-1.44,0-2.16,0C0,507.6,0,506.4,0,505.2z M200.67,233.43
			c1.47-3.85,4.11-8.46,6.85-11.95c5.13-6.51,11.17-12.07,17.73-17.08c12.54-9.57,26.32-17.03,40.58-23.61
			c16.12-7.44,32.79-13.48,49.68-18.9c5.29-1.7,9.03-4.96,10.61-10.43c0.89-3.08,0.89-6.22,0.76-9.38
			c-0.18-4.36-2.39-7.44-5.98-9.63c-1.77-1.07-3.58-2.12-5.49-2.9c-9.99-4.07-20.51-5.23-31.17-5.25
			c-7.12-0.02-14.18,0.77-21.13,2.35c-17.14,3.89-32.2,11.77-44.62,24.23c-14.49,14.53-21.21,32.42-21.72,52.78
			c-0.17,6.93,0.48,13.8,1.84,20.59C199.21,227.31,199.97,230.36,200.67,233.43z M264.63,340.92c-0.37-0.19-0.46-0.26-0.56-0.28
			c-14.28-3.36-28.81-5.14-43.39-6.48c-5.76-0.53-11.54-0.97-17.32-1.26c-9.37-0.47-18.74-1.01-28.12-1.1
			c-11.38-0.11-22.77,0.1-34.15,0.4c-7.54,0.2-15.09,0.6-22.59,1.3c-9.33,0.87-18.64,2.01-27.93,3.28
			c-10.28,1.41-20.41,3.59-30.31,6.73c-7.05,2.23-13.93,4.87-20.09,9.07c-1.92,1.31-3.68,2.87-5.76,4.51
			c0.79,0.29,1.18,0.46,1.59,0.59c5.92,1.94,12.06,2.68,18.21,3.3c10.66,1.08,21.35,1.36,32.06,1.4c3.55,0.01,7.11-0.01,10.66-0.11
			c8.18-0.25,16.37-0.42,24.54-0.87c9.4-0.53,18.8-1.26,28.18-2.05c7.4-0.62,14.78-1.38,22.15-2.24c7.73-0.9,15.44-1.91,23.14-3.04
			c9.23-1.36,18.46-2.72,27.63-4.43c12.1-2.26,24.14-4.87,36.2-7.35C260.66,341.92,262.52,341.43,264.63,340.92z"/>
		<path class="st0" d="M200.67,233.43c-0.7-3.06-1.45-6.11-2.07-9.19c-1.37-6.79-2.02-13.67-1.84-20.59
			c0.51-20.35,7.23-38.25,21.72-52.78c12.42-12.45,27.48-20.34,44.62-24.23c6.95-1.58,14.01-2.36,21.13-2.35
			c10.67,0.03,21.18,1.18,31.17,5.25c1.91,0.78,3.73,1.82,5.49,2.9c3.59,2.19,5.8,5.27,5.98,9.63c0.13,3.17,0.13,6.3-0.76,9.38
			c-1.58,5.47-5.32,8.73-10.61,10.43c-16.89,5.42-33.56,11.46-49.68,18.9c-14.26,6.59-28.04,14.05-40.58,23.61
			c-6.56,5.01-12.6,10.57-17.73,17.08C204.77,224.96,202.14,229.57,200.67,233.43z"/>
		<path class="st0" d="M264.63,340.92c-2.12,0.5-3.98,1-5.86,1.38c-12.06,2.48-24.1,5.08-36.2,7.35c-9.17,1.71-18.4,3.07-27.63,4.43
			c-7.69,1.14-15.41,2.14-23.14,3.04c-7.37,0.86-14.76,1.62-22.15,2.24c-9.39,0.79-18.78,1.52-28.18,2.05
			c-8.17,0.46-16.36,0.63-24.54,0.87c-3.55,0.11-7.11,0.12-10.66,0.11c-10.7-0.03-21.4-0.31-32.06-1.4
			c-6.15-0.62-12.29-1.36-18.21-3.3c-0.4-0.13-0.8-0.3-1.59-0.59c2.08-1.64,3.83-3.2,5.76-4.51c6.16-4.2,13.04-6.84,20.09-9.07
			c9.9-3.13,20.03-5.32,30.31-6.73c9.28-1.28,18.6-2.41,27.93-3.28c7.51-0.7,15.05-1.1,22.59-1.3c11.38-0.3,22.77-0.51,34.15-0.4
			c9.38,0.09,18.75,0.63,28.12,1.1c5.78,0.29,11.55,0.73,17.32,1.26c14.59,1.33,29.11,3.11,43.39,6.48
			C264.18,340.66,264.26,340.73,264.63,340.92z"/>
	</g>
</g>
</svg>
